<mxfile host="app.diagrams.net" modified="2023-12-20T06:27:11.766Z" agent="Mozilla/5.0 (Windows NT 10.0; Win64; x64) AppleWebKit/537.36 (KHTML, like Gecko) Chrome/120.0.0.0 Safari/537.36" etag="9OyMSiajZ8a_e-LaxKKc" version="22.1.11" type="device" pages="3">
  <diagram id="1zKJ3aS7u4nfxaMgUnLf" name="全景圖">
    <mxGraphModel dx="33" dy="878" grid="1" gridSize="10" guides="1" tooltips="1" connect="1" arrows="1" fold="1" page="1" pageScale="1" pageWidth="1654" pageHeight="1169" math="0" shadow="0">
      <root>
        <mxCell id="0" />
        <mxCell id="1" parent="0" />
        <mxCell id="qILNoeOLNLIKOVBpE9GA-1" value="" style="group;" parent="1" vertex="1" connectable="0">
          <mxGeometry x="1860" y="80" width="890" height="700" as="geometry" />
        </mxCell>
        <mxCell id="qILNoeOLNLIKOVBpE9GA-2" value="&lt;font style=&quot;font-size: 25px;&quot;&gt;SRS&lt;/font&gt;" style="rounded=1;whiteSpace=wrap;html=1;fillColor=#d5e8d4;strokeColor=#82b366;" parent="qILNoeOLNLIKOVBpE9GA-1" vertex="1">
          <mxGeometry y="87.10367826389924" width="124.60000000000002" height="149.95769249912897" as="geometry" />
        </mxCell>
        <mxCell id="qILNoeOLNLIKOVBpE9GA-3" value="" style="rounded=0;whiteSpace=wrap;html=1;align=center;fillColor=#dae8fc;strokeColor=#6c8ebf;gradientColor=none;glass=0;shadow=0;gradientDirection=east;" parent="qILNoeOLNLIKOVBpE9GA-1" vertex="1">
          <mxGeometry x="284.8" width="605.2" height="700" as="geometry" />
        </mxCell>
        <mxCell id="qILNoeOLNLIKOVBpE9GA-4" value="&lt;font style=&quot;font-size: 25px;&quot;&gt;IAS&lt;/font&gt;" style="text;html=1;strokeColor=none;fillColor=none;align=center;verticalAlign=middle;whiteSpace=wrap;rounded=0;" parent="qILNoeOLNLIKOVBpE9GA-1" vertex="1">
          <mxGeometry x="534" y="13.326226981104586" width="106.80000000000001" height="51.24493772314074" as="geometry" />
        </mxCell>
        <mxCell id="qILNoeOLNLIKOVBpE9GA-5" value="驗證卡片信息" style="rounded=1;whiteSpace=wrap;html=1;" parent="qILNoeOLNLIKOVBpE9GA-1" vertex="1">
          <mxGeometry x="320.40000000000003" y="50.90584797807446" width="213.60000000000002" height="102.48987544628147" as="geometry" />
        </mxCell>
        <mxCell id="qILNoeOLNLIKOVBpE9GA-6" value="交易碼" style="rounded=1;whiteSpace=wrap;html=1;" parent="qILNoeOLNLIKOVBpE9GA-1" vertex="1">
          <mxGeometry x="320.40000000000003" y="204.64066114749667" width="213.60000000000002" height="102.48987544628147" as="geometry" />
        </mxCell>
        <mxCell id="qILNoeOLNLIKOVBpE9GA-7" value="" style="edgeStyle=orthogonalEdgeStyle;rounded=0;orthogonalLoop=1;jettySize=auto;html=1;" parent="qILNoeOLNLIKOVBpE9GA-1" source="qILNoeOLNLIKOVBpE9GA-5" target="qILNoeOLNLIKOVBpE9GA-6" edge="1">
          <mxGeometry relative="1" as="geometry" />
        </mxCell>
        <mxCell id="qILNoeOLNLIKOVBpE9GA-8" value="確定授權檢核" style="rounded=1;whiteSpace=wrap;html=1;" parent="qILNoeOLNLIKOVBpE9GA-1" vertex="1">
          <mxGeometry x="320.40000000000003" y="358.3754743169189" width="213.60000000000002" height="102.48987544628147" as="geometry" />
        </mxCell>
        <mxCell id="qILNoeOLNLIKOVBpE9GA-9" value="" style="edgeStyle=orthogonalEdgeStyle;rounded=0;orthogonalLoop=1;jettySize=auto;html=1;" parent="qILNoeOLNLIKOVBpE9GA-1" source="qILNoeOLNLIKOVBpE9GA-6" target="qILNoeOLNLIKOVBpE9GA-8" edge="1">
          <mxGeometry relative="1" as="geometry" />
        </mxCell>
        <mxCell id="qILNoeOLNLIKOVBpE9GA-10" value="授權響應碼" style="rounded=1;whiteSpace=wrap;html=1;" parent="qILNoeOLNLIKOVBpE9GA-1" vertex="1">
          <mxGeometry x="640.8000000000001" y="50.90584797807446" width="213.60000000000002" height="102.48987544628147" as="geometry" />
        </mxCell>
        <mxCell id="qILNoeOLNLIKOVBpE9GA-11" style="edgeStyle=orthogonalEdgeStyle;rounded=0;orthogonalLoop=1;jettySize=auto;html=1;entryX=0;entryY=0.25;entryDx=0;entryDy=0;" parent="qILNoeOLNLIKOVBpE9GA-1" source="qILNoeOLNLIKOVBpE9GA-8" target="qILNoeOLNLIKOVBpE9GA-10" edge="1">
          <mxGeometry relative="1" as="geometry" />
        </mxCell>
        <mxCell id="qILNoeOLNLIKOVBpE9GA-12" value="產生Approval Code" style="rounded=1;whiteSpace=wrap;html=1;" parent="qILNoeOLNLIKOVBpE9GA-1" vertex="1">
          <mxGeometry x="640.8000000000001" y="204.64066114749667" width="213.60000000000002" height="102.48987544628147" as="geometry" />
        </mxCell>
        <mxCell id="qILNoeOLNLIKOVBpE9GA-13" style="edgeStyle=orthogonalEdgeStyle;rounded=0;orthogonalLoop=1;jettySize=auto;html=1;" parent="qILNoeOLNLIKOVBpE9GA-1" source="qILNoeOLNLIKOVBpE9GA-10" target="qILNoeOLNLIKOVBpE9GA-12" edge="1">
          <mxGeometry relative="1" as="geometry" />
        </mxCell>
        <mxCell id="qILNoeOLNLIKOVBpE9GA-14" value="紀錄授權紀錄" style="rounded=1;whiteSpace=wrap;html=1;" parent="qILNoeOLNLIKOVBpE9GA-1" vertex="1">
          <mxGeometry x="640.8000000000001" y="358.3754743169189" width="213.60000000000002" height="102.48987544628147" as="geometry" />
        </mxCell>
        <mxCell id="qILNoeOLNLIKOVBpE9GA-15" style="edgeStyle=orthogonalEdgeStyle;rounded=0;orthogonalLoop=1;jettySize=auto;html=1;entryX=0.5;entryY=0;entryDx=0;entryDy=0;" parent="qILNoeOLNLIKOVBpE9GA-1" source="qILNoeOLNLIKOVBpE9GA-12" target="qILNoeOLNLIKOVBpE9GA-14" edge="1">
          <mxGeometry relative="1" as="geometry" />
        </mxCell>
        <mxCell id="qILNoeOLNLIKOVBpE9GA-16" value="發送簡訊(Kafka)" style="rounded=1;whiteSpace=wrap;html=1;" parent="qILNoeOLNLIKOVBpE9GA-1" vertex="1">
          <mxGeometry x="640.8000000000001" y="529.1919333940547" width="213.60000000000002" height="102.48987544628147" as="geometry" />
        </mxCell>
        <mxCell id="qILNoeOLNLIKOVBpE9GA-17" style="edgeStyle=orthogonalEdgeStyle;rounded=0;orthogonalLoop=1;jettySize=auto;html=1;" parent="qILNoeOLNLIKOVBpE9GA-1" source="qILNoeOLNLIKOVBpE9GA-14" target="qILNoeOLNLIKOVBpE9GA-16" edge="1">
          <mxGeometry relative="1" as="geometry" />
        </mxCell>
        <mxCell id="qILNoeOLNLIKOVBpE9GA-18" value="確定授權檢核" style="rounded=1;whiteSpace=wrap;html=1;fillColor=#60a917;strokeColor=#2D7600;fontColor=#ffffff;" parent="qILNoeOLNLIKOVBpE9GA-1" vertex="1">
          <mxGeometry x="320.40000000000003" y="529.1919333940547" width="213.60000000000002" height="102.48987544628147" as="geometry" />
        </mxCell>
        <mxCell id="qILNoeOLNLIKOVBpE9GA-19" value="" style="edgeStyle=orthogonalEdgeStyle;rounded=0;orthogonalLoop=1;jettySize=auto;html=1;startArrow=classic;startFill=1;" parent="qILNoeOLNLIKOVBpE9GA-1" source="qILNoeOLNLIKOVBpE9GA-8" target="qILNoeOLNLIKOVBpE9GA-18" edge="1">
          <mxGeometry relative="1" as="geometry" />
        </mxCell>
        <mxCell id="qILNoeOLNLIKOVBpE9GA-20" value="確定授權檢核" style="rounded=1;whiteSpace=wrap;html=1;fillColor=#f0a30a;fontColor=#000000;strokeColor=#BD7000;" parent="qILNoeOLNLIKOVBpE9GA-1" vertex="1">
          <mxGeometry x="338.20000000000005" y="546.2735793017683" width="213.60000000000002" height="102.48987544628147" as="geometry" />
        </mxCell>
        <mxCell id="qILNoeOLNLIKOVBpE9GA-21" value="確定授權檢核" style="rounded=1;whiteSpace=wrap;html=1;fillColor=#ffcccc;strokeColor=#36393d;" parent="qILNoeOLNLIKOVBpE9GA-1" vertex="1">
          <mxGeometry x="356" y="563.3552252094818" width="213.60000000000002" height="102.48987544628147" as="geometry" />
        </mxCell>
        <mxCell id="qILNoeOLNLIKOVBpE9GA-22" value="授權檢核項" style="rounded=1;whiteSpace=wrap;html=1;fillColor=#ffff88;strokeColor=#36393d;" parent="qILNoeOLNLIKOVBpE9GA-1" vertex="1">
          <mxGeometry x="373.8" y="580.4368711171954" width="213.60000000000002" height="102.48987544628147" as="geometry" />
        </mxCell>
        <mxCell id="qILNoeOLNLIKOVBpE9GA-23" value="7" style="ellipse;whiteSpace=wrap;html=1;fontSize=18;fillColor=#0065FF;strokeColor=none;fontColor=#ffffff;rounded=1;fontStyle=1;arcSize=50;sketch=0;" parent="qILNoeOLNLIKOVBpE9GA-1" vertex="1">
          <mxGeometry x="818.8000000000001" y="341.29382840920533" width="53.400000000000006" height="46.97452624621234" as="geometry" />
        </mxCell>
        <mxCell id="qILNoeOLNLIKOVBpE9GA-24" value="6" style="ellipse;whiteSpace=wrap;html=1;fontSize=18;fillColor=#0065FF;strokeColor=none;fontColor=#ffffff;rounded=1;fontStyle=1;arcSize=50;sketch=0;" parent="qILNoeOLNLIKOVBpE9GA-1" vertex="1">
          <mxGeometry x="818.8000000000001" y="187.5590152397831" width="53.400000000000006" height="46.97452624621234" as="geometry" />
        </mxCell>
        <mxCell id="qILNoeOLNLIKOVBpE9GA-25" value="5" style="ellipse;whiteSpace=wrap;html=1;fontSize=18;fillColor=#0065FF;strokeColor=none;fontColor=#ffffff;rounded=1;fontStyle=1;arcSize=50;sketch=0;" parent="qILNoeOLNLIKOVBpE9GA-1" vertex="1">
          <mxGeometry x="818.8000000000001" y="27.418584854968294" width="53.400000000000006" height="46.97452624621234" as="geometry" />
        </mxCell>
        <mxCell id="qILNoeOLNLIKOVBpE9GA-26" value="4" style="ellipse;whiteSpace=wrap;html=1;fontSize=18;fillColor=#0065FF;strokeColor=none;fontColor=#ffffff;rounded=1;fontStyle=1;arcSize=50;sketch=0;" parent="qILNoeOLNLIKOVBpE9GA-1" vertex="1">
          <mxGeometry x="498.4000000000001" y="341.29382840920533" width="53.400000000000006" height="46.97452624621234" as="geometry" />
        </mxCell>
        <mxCell id="qILNoeOLNLIKOVBpE9GA-27" value="3" style="ellipse;whiteSpace=wrap;html=1;fontSize=18;fillColor=#0065FF;strokeColor=none;fontColor=#ffffff;rounded=1;fontStyle=1;arcSize=50;sketch=0;" parent="qILNoeOLNLIKOVBpE9GA-1" vertex="1">
          <mxGeometry x="498.4000000000001" y="187.5590152397831" width="53.400000000000006" height="46.97452624621234" as="geometry" />
        </mxCell>
        <mxCell id="qILNoeOLNLIKOVBpE9GA-28" value="2" style="ellipse;whiteSpace=wrap;html=1;fontSize=18;fillColor=#0065FF;strokeColor=none;fontColor=#ffffff;rounded=1;fontStyle=1;arcSize=50;sketch=0;" parent="qILNoeOLNLIKOVBpE9GA-1" vertex="1">
          <mxGeometry x="498.4000000000001" y="29.553790593432485" width="53.400000000000006" height="46.97452624621234" as="geometry" />
        </mxCell>
        <mxCell id="qILNoeOLNLIKOVBpE9GA-29" value="8" style="ellipse;whiteSpace=wrap;html=1;fontSize=18;fillColor=#0065FF;strokeColor=none;fontColor=#ffffff;rounded=1;fontStyle=1;arcSize=50;sketch=0;" parent="qILNoeOLNLIKOVBpE9GA-1" vertex="1">
          <mxGeometry x="818.8000000000001" y="516.3806989632695" width="53.400000000000006" height="46.97452624621234" as="geometry" />
        </mxCell>
        <mxCell id="qILNoeOLNLIKOVBpE9GA-30" value="&lt;font style=&quot;font-size: 25px;&quot;&gt;IBO&lt;/font&gt;" style="rounded=1;whiteSpace=wrap;html=1;fillColor=#d5e8d4;strokeColor=#82b366;" parent="qILNoeOLNLIKOVBpE9GA-1" vertex="1">
          <mxGeometry y="550.0423075008711" width="124.60000000000002" height="149.95769249912897" as="geometry" />
        </mxCell>
        <mxCell id="qILNoeOLNLIKOVBpE9GA-31" style="edgeStyle=orthogonalEdgeStyle;rounded=0;orthogonalLoop=1;jettySize=auto;html=1;exitX=1;exitY=0.25;exitDx=0;exitDy=0;" parent="qILNoeOLNLIKOVBpE9GA-1" source="qILNoeOLNLIKOVBpE9GA-2" edge="1">
          <mxGeometry relative="1" as="geometry">
            <mxPoint x="286.58000000000004" y="121.94514956945899" as="targetPoint" />
            <Array as="points">
              <mxPoint x="204.70000000000002" y="125.42929670001494" />
              <mxPoint x="204.70000000000002" y="121.94514956945898" />
              <mxPoint x="286.58000000000004" y="121.94514956945898" />
            </Array>
          </mxGeometry>
        </mxCell>
        <mxCell id="qILNoeOLNLIKOVBpE9GA-32" value="1" style="ellipse;whiteSpace=wrap;html=1;fontSize=18;fillColor=#0065FF;strokeColor=none;fontColor=#ffffff;rounded=1;fontStyle=1;arcSize=50;sketch=0;" parent="qILNoeOLNLIKOVBpE9GA-1" vertex="1">
          <mxGeometry x="178" y="96.54703096046808" width="53.400000000000006" height="46.97452624621234" as="geometry" />
        </mxCell>
        <mxCell id="qILNoeOLNLIKOVBpE9GA-33" style="edgeStyle=orthogonalEdgeStyle;rounded=0;orthogonalLoop=1;jettySize=auto;html=1;exitX=1;exitY=0.75;exitDx=0;exitDy=0;endArrow=none;endFill=0;startArrow=classic;startFill=1;" parent="qILNoeOLNLIKOVBpE9GA-1" source="qILNoeOLNLIKOVBpE9GA-2" edge="1">
          <mxGeometry relative="1" as="geometry">
            <mxPoint x="284.8" y="200.33846000696832" as="targetPoint" />
            <Array as="points">
              <mxPoint x="281.24" y="200.33846000696832" />
            </Array>
          </mxGeometry>
        </mxCell>
        <mxCell id="qILNoeOLNLIKOVBpE9GA-34" value="10" style="ellipse;whiteSpace=wrap;html=1;fontSize=18;fillColor=#0065FF;strokeColor=none;fontColor=#ffffff;rounded=1;fontStyle=1;arcSize=50;sketch=0;" parent="qILNoeOLNLIKOVBpE9GA-1" vertex="1">
          <mxGeometry x="178" y="173.86025578750497" width="53.400000000000006" height="46.97452624621234" as="geometry" />
        </mxCell>
        <mxCell id="qILNoeOLNLIKOVBpE9GA-35" style="edgeStyle=orthogonalEdgeStyle;rounded=0;orthogonalLoop=1;jettySize=auto;html=1;entryX=0.003;entryY=0.89;entryDx=0;entryDy=0;entryPerimeter=0;endArrow=none;endFill=0;startArrow=classic;startFill=1;" parent="qILNoeOLNLIKOVBpE9GA-1" source="qILNoeOLNLIKOVBpE9GA-30" target="qILNoeOLNLIKOVBpE9GA-3" edge="1">
          <mxGeometry relative="1" as="geometry" />
        </mxCell>
        <mxCell id="qILNoeOLNLIKOVBpE9GA-36" value="9" style="ellipse;whiteSpace=wrap;html=1;fontSize=18;fillColor=#0065FF;strokeColor=none;fontColor=#ffffff;rounded=1;fontStyle=1;arcSize=50;sketch=0;" parent="qILNoeOLNLIKOVBpE9GA-1" vertex="1">
          <mxGeometry x="178" y="601.7910901989621" width="53.400000000000006" height="46.97452624621234" as="geometry" />
        </mxCell>
      </root>
    </mxGraphModel>
  </diagram>
  <diagram id="_mXWE-AlIpcyo3pY2MIP" name="系統流程">
    <mxGraphModel dx="1434" dy="746" grid="1" gridSize="10" guides="1" tooltips="1" connect="1" arrows="1" fold="1" page="1" pageScale="1" pageWidth="1654" pageHeight="1169" math="0" shadow="0">
      <root>
        <mxCell id="0" />
        <mxCell id="1" parent="0" />
        <mxCell id="3SIILa7-b4YnE8WX1GCS-1" value="" style="edgeStyle=orthogonalEdgeStyle;rounded=0;orthogonalLoop=1;jettySize=auto;html=1;" parent="1" source="3SIILa7-b4YnE8WX1GCS-2" target="3SIILa7-b4YnE8WX1GCS-5" edge="1">
          <mxGeometry relative="1" as="geometry" />
        </mxCell>
        <mxCell id="3SIILa7-b4YnE8WX1GCS-2" value="common.PrepareIasContextStep" style="rounded=0;whiteSpace=wrap;html=1;" parent="1" vertex="1">
          <mxGeometry x="610" y="40" width="200" height="60" as="geometry" />
        </mxCell>
        <mxCell id="3SIILa7-b4YnE8WX1GCS-3" value="&lt;div style=&quot;&quot;&gt;&lt;span style=&quot;background-color: initial;&quot;&gt;驗證卡號、有效期、幣別&lt;/span&gt;&lt;/div&gt;" style="text;html=1;strokeColor=none;fillColor=none;align=left;verticalAlign=middle;whiteSpace=wrap;rounded=0;" parent="1" vertex="1">
          <mxGeometry x="815" y="65" width="190" height="30" as="geometry" />
        </mxCell>
        <mxCell id="3SIILa7-b4YnE8WX1GCS-4" value="" style="edgeStyle=orthogonalEdgeStyle;rounded=0;orthogonalLoop=1;jettySize=auto;html=1;" parent="1" source="3SIILa7-b4YnE8WX1GCS-5" target="3SIILa7-b4YnE8WX1GCS-8" edge="1">
          <mxGeometry relative="1" as="geometry" />
        </mxCell>
        <mxCell id="3SIILa7-b4YnE8WX1GCS-5" value="step.DetermineTransactionCodeStep" style="rounded=0;whiteSpace=wrap;html=1;" parent="1" vertex="1">
          <mxGeometry x="610" y="180" width="200" height="60" as="geometry" />
        </mxCell>
        <mxCell id="3SIILa7-b4YnE8WX1GCS-6" value="取得交易碼&lt;br&gt;VISA Transaction Rule with ISO message to get txn Code ( filter expression)&lt;br&gt;(強制授權)" style="text;html=1;strokeColor=none;fillColor=none;align=left;verticalAlign=middle;whiteSpace=wrap;rounded=0;" parent="1" vertex="1">
          <mxGeometry x="815" y="185" width="485" height="50" as="geometry" />
        </mxCell>
        <mxCell id="3SIILa7-b4YnE8WX1GCS-7" value="" style="edgeStyle=orthogonalEdgeStyle;rounded=0;orthogonalLoop=1;jettySize=auto;html=1;" parent="1" source="3SIILa7-b4YnE8WX1GCS-8" target="3SIILa7-b4YnE8WX1GCS-12" edge="1">
          <mxGeometry relative="1" as="geometry" />
        </mxCell>
        <mxCell id="3SIILa7-b4YnE8WX1GCS-8" value="check.AuthSequenceCodeStep" style="rounded=0;whiteSpace=wrap;html=1;" parent="1" vertex="1">
          <mxGeometry x="610" y="320" width="200" height="60" as="geometry" />
        </mxCell>
        <mxCell id="3SIILa7-b4YnE8WX1GCS-9" style="edgeStyle=orthogonalEdgeStyle;rounded=0;orthogonalLoop=1;jettySize=auto;html=1;" parent="1" source="3SIILa7-b4YnE8WX1GCS-10" target="3SIILa7-b4YnE8WX1GCS-25" edge="1">
          <mxGeometry relative="1" as="geometry" />
        </mxCell>
        <mxCell id="3SIILa7-b4YnE8WX1GCS-10" value="找出授權檢核順序（Auth Sequence Code&lt;br&gt;授權檢核項目( Auth Check Item)&lt;br&gt;&lt;br&gt;1. Find&amp;nbsp; athSeqIdnCde&lt;span style=&quot;background-color: initial;&quot;&gt;&amp;nbsp; (&lt;/span&gt;&lt;span style=&quot;background-color: rgb(255, 217, 102);&quot;&gt;DFLTDFLT6810&lt;/span&gt;) from&amp;nbsp; Transaction Process Control By Transaction Code&lt;br&gt;&lt;br&gt;2. Find&amp;nbsp;AuthSequenceCode by athSeqIdnCde&amp;nbsp;+&amp;nbsp;txnCryCde +&amp;nbsp;networkType&lt;br&gt;&lt;br&gt;3. Processing check item from AuthSequence Code&lt;br&gt;" style="text;html=1;strokeColor=none;fillColor=none;align=left;verticalAlign=top;whiteSpace=wrap;rounded=0;" parent="1" vertex="1">
          <mxGeometry x="815" y="277.5" width="300" height="145" as="geometry" />
        </mxCell>
        <mxCell id="3SIILa7-b4YnE8WX1GCS-11" value="" style="edgeStyle=orthogonalEdgeStyle;rounded=0;orthogonalLoop=1;jettySize=auto;html=1;" parent="1" source="3SIILa7-b4YnE8WX1GCS-12" target="3SIILa7-b4YnE8WX1GCS-15" edge="1">
          <mxGeometry relative="1" as="geometry" />
        </mxCell>
        <mxCell id="3SIILa7-b4YnE8WX1GCS-12" value="step.DetermineMostServerResponseStep" style="rounded=0;whiteSpace=wrap;html=1;" parent="1" vertex="1">
          <mxGeometry x="590" y="460" width="240" height="60" as="geometry" />
        </mxCell>
        <mxCell id="3SIILa7-b4YnE8WX1GCS-13" value="檢核violations，並回傳授權響應碼" style="text;html=1;strokeColor=none;fillColor=none;align=left;verticalAlign=middle;whiteSpace=wrap;rounded=0;" parent="1" vertex="1">
          <mxGeometry x="840" y="470" width="300" height="30" as="geometry" />
        </mxCell>
        <mxCell id="3SIILa7-b4YnE8WX1GCS-14" value="" style="edgeStyle=orthogonalEdgeStyle;rounded=0;orthogonalLoop=1;jettySize=auto;html=1;" parent="1" source="3SIILa7-b4YnE8WX1GCS-15" target="3SIILa7-b4YnE8WX1GCS-18" edge="1">
          <mxGeometry relative="1" as="geometry" />
        </mxCell>
        <mxCell id="3SIILa7-b4YnE8WX1GCS-15" value="step.GenerateApproveCodeStep" style="rounded=0;whiteSpace=wrap;html=1;" parent="1" vertex="1">
          <mxGeometry x="590" y="600" width="240" height="60" as="geometry" />
        </mxCell>
        <mxCell id="3SIILa7-b4YnE8WX1GCS-16" value="產生approval Code" style="text;html=1;strokeColor=none;fillColor=none;align=left;verticalAlign=middle;whiteSpace=wrap;rounded=0;" parent="1" vertex="1">
          <mxGeometry x="840" y="615" width="300" height="30" as="geometry" />
        </mxCell>
        <mxCell id="3SIILa7-b4YnE8WX1GCS-17" value="" style="edgeStyle=orthogonalEdgeStyle;rounded=0;orthogonalLoop=1;jettySize=auto;html=1;" parent="1" source="3SIILa7-b4YnE8WX1GCS-18" target="3SIILa7-b4YnE8WX1GCS-21" edge="1">
          <mxGeometry relative="1" as="geometry" />
        </mxCell>
        <mxCell id="3SIILa7-b4YnE8WX1GCS-18" value="step.CreateOutstandingStep" style="rounded=0;whiteSpace=wrap;html=1;" parent="1" vertex="1">
          <mxGeometry x="590" y="740" width="240" height="60" as="geometry" />
        </mxCell>
        <mxCell id="3SIILa7-b4YnE8WX1GCS-19" value="紀錄授權(錯誤)信息(outstanding_authorization)" style="text;html=1;strokeColor=none;fillColor=none;align=left;verticalAlign=middle;whiteSpace=wrap;rounded=0;" parent="1" vertex="1">
          <mxGeometry x="840" y="755" width="300" height="30" as="geometry" />
        </mxCell>
        <mxCell id="3SIILa7-b4YnE8WX1GCS-20" value="" style="edgeStyle=orthogonalEdgeStyle;rounded=0;orthogonalLoop=1;jettySize=auto;html=1;" parent="1" source="3SIILa7-b4YnE8WX1GCS-21" target="3SIILa7-b4YnE8WX1GCS-23" edge="1">
          <mxGeometry relative="1" as="geometry" />
        </mxCell>
        <UserObject label="step.SendMessageStep" id="3SIILa7-b4YnE8WX1GCS-21">
          <mxCell style="rounded=0;whiteSpace=wrap;html=1;" parent="1" vertex="1">
            <mxGeometry x="590" y="880" width="240" height="60" as="geometry" />
          </mxCell>
        </UserObject>
        <mxCell id="3SIILa7-b4YnE8WX1GCS-22" value="Kafka&lt;br&gt;即時/不即時入帳&lt;br&gt;&lt;br&gt;根據Transaction Processing Controler的PTG_TXN_CDE(入帳交易碼)數據執行，和其他相關配置。&lt;br&gt;1.不執行任何動作。&lt;br&gt;2.根據OPI_PTG_IND(聯機入帳標識)，執行否即時/不即時入帳的流程。&lt;br&gt;&lt;br&gt;Notes:&lt;br&gt;&lt;span style=&quot;background-color: rgb(255, 217, 102);&quot;&gt;com.worldline.cardlite.cas.api.AccountPosting/transactionPosting&lt;/span&gt;" style="text;html=1;strokeColor=none;fillColor=none;align=left;verticalAlign=top;whiteSpace=wrap;rounded=0;" parent="1" vertex="1">
          <mxGeometry x="840" y="840" width="350" height="190" as="geometry" />
        </mxCell>
        <UserObject label="step.SendSmsMessageStep" id="3SIILa7-b4YnE8WX1GCS-23">
          <mxCell style="rounded=0;whiteSpace=wrap;html=1;" parent="1" vertex="1">
            <mxGeometry x="590" y="1080" width="240" height="60" as="geometry" />
          </mxCell>
        </UserObject>
        <mxCell id="3SIILa7-b4YnE8WX1GCS-24" value="發送交易訊息至Kafka" style="text;html=1;align=center;verticalAlign=middle;resizable=0;points=[];autosize=1;strokeColor=none;fillColor=none;" parent="1" vertex="1">
          <mxGeometry x="830" y="1080" width="140" height="30" as="geometry" />
        </mxCell>
        <mxCell id="3SIILa7-b4YnE8WX1GCS-25" value="&lt;div&gt;1&lt;span style=&quot;white-space: pre;&quot;&gt;&amp;nbsp;&amp;nbsp;&amp;nbsp;&amp;nbsp;&lt;/span&gt;check.ExpiryDateAuthCheckStep&lt;span style=&quot;&quot;&gt;&lt;span style=&quot;white-space: pre;&quot;&gt;&amp;nbsp;&amp;nbsp;&amp;nbsp;&amp;nbsp;&lt;/span&gt;&lt;/span&gt;10&lt;/div&gt;&lt;div&gt;2&lt;span style=&quot;&quot;&gt;&lt;span style=&quot;white-space: pre;&quot;&gt;&amp;nbsp;&amp;nbsp;&amp;nbsp;&amp;nbsp;&lt;/span&gt;&lt;/span&gt;check.CurrencyCheckStep&lt;span style=&quot;&quot;&gt;&lt;span style=&quot;white-space: pre;&quot;&gt;&amp;nbsp;&amp;nbsp;&amp;nbsp;&amp;nbsp;&lt;/span&gt;&lt;/span&gt;20&lt;/div&gt;&lt;div&gt;3&lt;span style=&quot;&quot;&gt;&lt;span style=&quot;white-space: pre;&quot;&gt;&amp;nbsp;&amp;nbsp;&amp;nbsp;&amp;nbsp;&lt;/span&gt;&lt;/span&gt;check.CustomerStatusAuthCheckStep&lt;span style=&quot;&quot;&gt;&lt;span style=&quot;white-space: pre;&quot;&gt;&amp;nbsp;&amp;nbsp;&amp;nbsp;&amp;nbsp;&lt;/span&gt;&lt;/span&gt;24&lt;/div&gt;&lt;div&gt;4&lt;span style=&quot;&quot;&gt;&lt;span style=&quot;white-space: pre;&quot;&gt;&amp;nbsp;&amp;nbsp;&amp;nbsp;&amp;nbsp;&lt;/span&gt;&lt;/span&gt;check.CustomerBlockAuthCheckStep&lt;span style=&quot;&quot;&gt;&lt;span style=&quot;white-space: pre;&quot;&gt;&amp;nbsp;&amp;nbsp;&amp;nbsp;&amp;nbsp;&lt;/span&gt;&lt;/span&gt;26&lt;/div&gt;&lt;div&gt;5&lt;span style=&quot;&quot;&gt;&lt;span style=&quot;white-space: pre;&quot;&gt;&amp;nbsp;&amp;nbsp;&amp;nbsp;&amp;nbsp;&lt;/span&gt;&lt;/span&gt;check.AccountStatusAuthCheckStep&lt;span style=&quot;&quot;&gt;&lt;span style=&quot;white-space: pre;&quot;&gt;&amp;nbsp;&amp;nbsp;&amp;nbsp;&amp;nbsp;&lt;/span&gt;&lt;/span&gt;30&lt;/div&gt;&lt;div&gt;6&lt;span style=&quot;&quot;&gt;&lt;span style=&quot;white-space: pre;&quot;&gt;&amp;nbsp;&amp;nbsp;&amp;nbsp;&amp;nbsp;&lt;/span&gt;&lt;/span&gt;check.AccountBlockAuthCheckStep&lt;span style=&quot;&quot;&gt;&lt;span style=&quot;white-space: pre;&quot;&gt;&amp;nbsp;&amp;nbsp;&amp;nbsp;&amp;nbsp;&lt;/span&gt;&lt;/span&gt;40&lt;/div&gt;&lt;div&gt;7&lt;span style=&quot;&quot;&gt;&lt;span style=&quot;white-space: pre;&quot;&gt;&amp;nbsp;&amp;nbsp;&amp;nbsp;&amp;nbsp;&lt;/span&gt;&lt;/span&gt;check.PlasticStatusAuthCheckStep&lt;span style=&quot;&quot;&gt;&lt;span style=&quot;white-space: pre;&quot;&gt;&amp;nbsp;&amp;nbsp;&amp;nbsp;&amp;nbsp;&lt;/span&gt;&lt;/span&gt;44&lt;/div&gt;&lt;div&gt;8&lt;span style=&quot;&quot;&gt;&lt;span style=&quot;white-space: pre;&quot;&gt;&amp;nbsp;&amp;nbsp;&amp;nbsp;&amp;nbsp;&lt;/span&gt;&lt;/span&gt;check.ApplicationStatusAuthCheckStep&lt;span style=&quot;&quot;&gt;&lt;span style=&quot;white-space: pre;&quot;&gt;&amp;nbsp;&amp;nbsp;&amp;nbsp;&amp;nbsp;&lt;/span&gt;&lt;/span&gt;46&lt;/div&gt;&lt;div&gt;9&lt;span style=&quot;&quot;&gt;&lt;span style=&quot;white-space: pre;&quot;&gt;&amp;nbsp;&amp;nbsp;&amp;nbsp;&amp;nbsp;&lt;/span&gt;&lt;/span&gt;check.FirstUsageAuthCheckStep&lt;span style=&quot;&quot;&gt;&lt;span style=&quot;white-space: pre;&quot;&gt;&amp;nbsp;&amp;nbsp;&amp;nbsp;&amp;nbsp;&lt;/span&gt;&lt;/span&gt;50&lt;/div&gt;&lt;div&gt;10&lt;span style=&quot;&quot;&gt;&lt;span style=&quot;white-space: pre;&quot;&gt;&amp;nbsp;&amp;nbsp;&amp;nbsp;&amp;nbsp;&lt;/span&gt;&lt;/span&gt;check.MccAuthCheckStep&lt;span style=&quot;&quot;&gt;&lt;span style=&quot;white-space: pre;&quot;&gt;&amp;nbsp;&amp;nbsp;&amp;nbsp;&amp;nbsp;&lt;/span&gt;&lt;/span&gt;55&lt;/div&gt;&lt;div&gt;11&lt;span style=&quot;&quot;&gt;&lt;span style=&quot;white-space: pre;&quot;&gt;&amp;nbsp;&amp;nbsp;&amp;nbsp;&amp;nbsp;&lt;/span&gt;&lt;/span&gt;vis.Cvv2AuthCheckStep&lt;span style=&quot;&quot;&gt;&lt;span style=&quot;white-space: pre;&quot;&gt;&amp;nbsp;&amp;nbsp;&amp;nbsp;&amp;nbsp;&lt;/span&gt;&lt;/span&gt;60&lt;/div&gt;&lt;div&gt;12&lt;span style=&quot;&quot;&gt;&lt;span style=&quot;white-space: pre;&quot;&gt;&amp;nbsp;&amp;nbsp;&amp;nbsp;&amp;nbsp;&lt;/span&gt;&lt;/span&gt;check.CvvAuthCheckStep&lt;span style=&quot;&quot;&gt;&lt;span style=&quot;white-space: pre;&quot;&gt;&amp;nbsp;&amp;nbsp;&amp;nbsp;&amp;nbsp;&lt;/span&gt;&lt;/span&gt;70&lt;/div&gt;&lt;div&gt;13&lt;span style=&quot;&quot;&gt;&lt;span style=&quot;white-space: pre;&quot;&gt;&amp;nbsp;&amp;nbsp;&amp;nbsp;&amp;nbsp;&lt;/span&gt;&lt;/span&gt;check.Cvv2RetriesAuthCheckStep&lt;span style=&quot;&quot;&gt;&lt;span style=&quot;white-space: pre;&quot;&gt;&amp;nbsp;&amp;nbsp;&amp;nbsp;&amp;nbsp;&lt;/span&gt;&lt;/span&gt;70&lt;/div&gt;&lt;div&gt;14&lt;span style=&quot;&quot;&gt;&lt;span style=&quot;white-space: pre;&quot;&gt;&amp;nbsp;&amp;nbsp;&amp;nbsp;&amp;nbsp;&lt;/span&gt;&lt;/span&gt;check.CvvRetriesAuthCheckStep&lt;span style=&quot;&quot;&gt;&lt;span style=&quot;white-space: pre;&quot;&gt;&amp;nbsp;&amp;nbsp;&amp;nbsp;&amp;nbsp;&lt;/span&gt;&lt;/span&gt;80&lt;/div&gt;&lt;div&gt;15&lt;span style=&quot;&quot;&gt;&lt;span style=&quot;white-space: pre;&quot;&gt;&amp;nbsp;&amp;nbsp;&amp;nbsp;&amp;nbsp;&lt;/span&gt;&lt;/span&gt;check.PinAuthCheckStep&lt;span style=&quot;&quot;&gt;&lt;span style=&quot;white-space: pre;&quot;&gt;&amp;nbsp;&amp;nbsp;&amp;nbsp;&amp;nbsp;&lt;/span&gt;&lt;/span&gt;80&lt;/div&gt;&lt;div&gt;16&lt;span style=&quot;&quot;&gt;&lt;span style=&quot;white-space: pre;&quot;&gt;&amp;nbsp;&amp;nbsp;&amp;nbsp;&amp;nbsp;&lt;/span&gt;&lt;/span&gt;check.PinRetriesAuthCheckStep&lt;span style=&quot;&quot;&gt;&lt;span style=&quot;white-space: pre;&quot;&gt;&amp;nbsp;&amp;nbsp;&amp;nbsp;&amp;nbsp;&lt;/span&gt;&lt;/span&gt;90&lt;/div&gt;&lt;div&gt;17&lt;span style=&quot;&quot;&gt;&lt;span style=&quot;white-space: pre;&quot;&gt;&amp;nbsp;&amp;nbsp;&amp;nbsp;&amp;nbsp;&lt;/span&gt;&lt;/span&gt;check.ApplicationLimitAuthCheckStep&lt;span style=&quot;&quot;&gt;&lt;span style=&quot;white-space: pre;&quot;&gt;&amp;nbsp;&amp;nbsp;&amp;nbsp;&amp;nbsp;&lt;/span&gt;&lt;/span&gt;100&lt;/div&gt;&lt;div&gt;18&lt;span style=&quot;&quot;&gt;&lt;span style=&quot;white-space: pre;&quot;&gt;&amp;nbsp;&amp;nbsp;&amp;nbsp;&amp;nbsp;&lt;/span&gt;&lt;/span&gt;step.DetermineAccountCreditConfigStep&lt;span style=&quot;&quot;&gt;&lt;span style=&quot;white-space: pre;&quot;&gt;&amp;nbsp;&amp;nbsp;&amp;nbsp;&amp;nbsp;&lt;/span&gt;&lt;/span&gt;110&lt;/div&gt;&lt;div&gt;19&lt;span style=&quot;&quot;&gt;&lt;span style=&quot;white-space: pre;&quot;&gt;&amp;nbsp;&amp;nbsp;&amp;nbsp;&amp;nbsp;&lt;/span&gt;&lt;/span&gt;check.CreditLimitAuthCheckStep&lt;span style=&quot;&quot;&gt;&lt;span style=&quot;white-space: pre;&quot;&gt;&amp;nbsp;&amp;nbsp;&amp;nbsp;&amp;nbsp;&lt;/span&gt;&lt;/span&gt;120&lt;/div&gt;&lt;div&gt;20&lt;span style=&quot;&quot;&gt;&lt;span style=&quot;white-space: pre;&quot;&gt;&amp;nbsp;&amp;nbsp;&amp;nbsp;&amp;nbsp;&lt;/span&gt;&lt;/span&gt;common.UpdateAccountCreditDataStep&lt;span style=&quot;&quot;&gt;&lt;span style=&quot;white-space: pre;&quot;&gt;&amp;nbsp;&amp;nbsp;&amp;nbsp;&amp;nbsp;&lt;/span&gt;&lt;/span&gt;160&lt;/div&gt;&lt;div&gt;21&lt;span style=&quot;&quot;&gt;&lt;span style=&quot;white-space: pre;&quot;&gt;&amp;nbsp;&amp;nbsp;&amp;nbsp;&amp;nbsp;&lt;/span&gt;&lt;/span&gt;check.DetermineAccountVelocityConfigStep&lt;span style=&quot;&quot;&gt;&lt;span style=&quot;white-space: pre;&quot;&gt;&amp;nbsp;&amp;nbsp;&amp;nbsp;&amp;nbsp;&lt;/span&gt;&lt;/span&gt;170&lt;/div&gt;&lt;div&gt;22&lt;span style=&quot;&quot;&gt;&lt;span style=&quot;white-space: pre;&quot;&gt;&amp;nbsp;&amp;nbsp;&amp;nbsp;&amp;nbsp;&lt;/span&gt;&lt;/span&gt;check.BussCaseCheckStep&lt;span style=&quot;&quot;&gt;&lt;span style=&quot;white-space: pre;&quot;&gt;&amp;nbsp;&amp;nbsp;&amp;nbsp;&amp;nbsp;&lt;/span&gt;&lt;/span&gt;172&lt;/div&gt;&lt;div&gt;23&lt;span style=&quot;&quot;&gt;&lt;span style=&quot;white-space: pre;&quot;&gt;&amp;nbsp;&amp;nbsp;&amp;nbsp;&amp;nbsp;&lt;/span&gt;&lt;/span&gt;check.RiskControlCheckStep&lt;span style=&quot;&quot;&gt;&lt;span style=&quot;white-space: pre;&quot;&gt;&amp;nbsp;&amp;nbsp;&amp;nbsp;&amp;nbsp;&lt;/span&gt;&lt;/span&gt;173&lt;/div&gt;&lt;div&gt;24&lt;span style=&quot;&quot;&gt;&lt;span style=&quot;white-space: pre;&quot;&gt;&amp;nbsp;&amp;nbsp;&amp;nbsp;&amp;nbsp;&lt;/span&gt;&lt;/span&gt;check.UsageRateCheckStep&lt;span style=&quot;&quot;&gt;&lt;span style=&quot;white-space: pre;&quot;&gt;&amp;nbsp;&amp;nbsp;&amp;nbsp;&amp;nbsp;&lt;/span&gt;&lt;/span&gt;174&lt;/div&gt;&lt;div&gt;25&lt;span style=&quot;&quot;&gt;&lt;span style=&quot;white-space: pre;&quot;&gt;&amp;nbsp;&amp;nbsp;&amp;nbsp;&amp;nbsp;&lt;/span&gt;&lt;/span&gt;common.UpdateVelocityDataStep&lt;span style=&quot;&quot;&gt;&lt;span style=&quot;white-space: pre;&quot;&gt;&amp;nbsp;&amp;nbsp;&amp;nbsp;&amp;nbsp;&lt;/span&gt;&lt;/span&gt;175&lt;/div&gt;&lt;div&gt;26&lt;span style=&quot;&quot;&gt;&lt;span style=&quot;white-space: pre;&quot;&gt;&amp;nbsp;&amp;nbsp;&amp;nbsp;&amp;nbsp;&lt;/span&gt;&lt;/span&gt;check.RollingExcessiveUsagePeriodStep&lt;span style=&quot;&quot;&gt;&lt;span style=&quot;white-space: pre;&quot;&gt;&amp;nbsp;&amp;nbsp;&amp;nbsp;&amp;nbsp;&lt;/span&gt;&lt;/span&gt;180&lt;/div&gt;&lt;div&gt;27&lt;span style=&quot;&quot;&gt;&lt;span style=&quot;white-space: pre;&quot;&gt;&amp;nbsp;&amp;nbsp;&amp;nbsp;&amp;nbsp;&lt;/span&gt;&lt;/span&gt;check.ExcessiveUsageAuthCheckStep&lt;span style=&quot;&quot;&gt;&lt;span style=&quot;white-space: pre;&quot;&gt;&amp;nbsp;&amp;nbsp;&amp;nbsp;&amp;nbsp;&lt;/span&gt;&lt;/span&gt;190&lt;/div&gt;&lt;div&gt;28&lt;span style=&quot;&quot;&gt;&lt;span style=&quot;white-space: pre;&quot;&gt;&amp;nbsp;&amp;nbsp;&amp;nbsp;&amp;nbsp;&lt;/span&gt;&lt;/span&gt;step.UpdateExcessiveUsageStep&lt;span style=&quot;&quot;&gt;&lt;span style=&quot;white-space: pre;&quot;&gt;&amp;nbsp;&amp;nbsp;&amp;nbsp;&amp;nbsp;&lt;/span&gt;&lt;/span&gt;200&lt;/div&gt;" style="text;html=1;align=left;verticalAlign=middle;resizable=0;points=[];autosize=1;strokeColor=none;fillColor=none;" parent="1" vertex="1">
          <mxGeometry x="1280" y="140" width="320" height="420" as="geometry" />
        </mxCell>
        <mxCell id="3SIILa7-b4YnE8WX1GCS-26" value="IAS" style="rounded=0;whiteSpace=wrap;html=1;" parent="1" vertex="1">
          <mxGeometry x="100" y="40" width="120" height="60" as="geometry" />
        </mxCell>
        <mxCell id="3SIILa7-b4YnE8WX1GCS-27" value="" style="endArrow=classic;html=1;rounded=0;exitX=1;exitY=0.5;exitDx=0;exitDy=0;entryX=0;entryY=0.5;entryDx=0;entryDy=0;" parent="1" source="3SIILa7-b4YnE8WX1GCS-26" target="3SIILa7-b4YnE8WX1GCS-2" edge="1">
          <mxGeometry relative="1" as="geometry">
            <mxPoint x="500" y="130" as="sourcePoint" />
            <mxPoint x="600" y="130" as="targetPoint" />
          </mxGeometry>
        </mxCell>
        <mxCell id="3SIILa7-b4YnE8WX1GCS-28" value="&lt;span style=&quot;background-color: rgb(255, 217, 102);&quot;&gt;RequestService.json&lt;/span&gt;" style="edgeLabel;resizable=0;html=1;align=center;verticalAlign=middle;fontSize=24;" parent="3SIILa7-b4YnE8WX1GCS-27" connectable="0" vertex="1">
          <mxGeometry relative="1" as="geometry" />
        </mxCell>
      </root>
    </mxGraphModel>
  </diagram>
  <diagram name="草稿" id="3dF16e8RksI5V0WSV1B_">
    <mxGraphModel dx="-220" dy="746" grid="1" gridSize="10" guides="1" tooltips="1" connect="1" arrows="1" fold="0" page="1" pageScale="1" pageWidth="1654" pageHeight="1169" math="0" shadow="0">
      <root>
        <mxCell id="0" />
        <mxCell id="1" parent="0" />
        <mxCell id="q_rT3Un5NSsV7Birm5jb-58" value="" style="rounded=1;whiteSpace=wrap;html=1;fillColor=#f8cecc;strokeColor=#b85450;" parent="1" vertex="1">
          <mxGeometry x="2430" y="760" width="830" height="245" as="geometry" />
        </mxCell>
        <mxCell id="q_rT3Un5NSsV7Birm5jb-32" value="" style="edgeStyle=orthogonalEdgeStyle;rounded=0;orthogonalLoop=1;jettySize=auto;html=1;" parent="1" source="q_rT3Un5NSsV7Birm5jb-30" target="q_rT3Un5NSsV7Birm5jb-31" edge="1">
          <mxGeometry relative="1" as="geometry" />
        </mxCell>
        <mxCell id="hIhFtdJ_mNiDQXCbPBuM-1" value="1" style="edgeLabel;html=1;align=center;verticalAlign=middle;resizable=0;points=[];" vertex="1" connectable="0" parent="q_rT3Un5NSsV7Birm5jb-32">
          <mxGeometry x="0.0556" relative="1" as="geometry">
            <mxPoint as="offset" />
          </mxGeometry>
        </mxCell>
        <mxCell id="q_rT3Un5NSsV7Birm5jb-30" value="SRS" style="rounded=1;whiteSpace=wrap;html=1;fillColor=#ffe6cc;strokeColor=#d79b00;" parent="1" vertex="1">
          <mxGeometry x="2200" y="780" width="120" height="60" as="geometry" />
        </mxCell>
        <mxCell id="q_rT3Un5NSsV7Birm5jb-34" value="" style="edgeStyle=orthogonalEdgeStyle;rounded=0;orthogonalLoop=1;jettySize=auto;html=1;" parent="1" source="q_rT3Un5NSsV7Birm5jb-31" target="q_rT3Un5NSsV7Birm5jb-33" edge="1">
          <mxGeometry relative="1" as="geometry" />
        </mxCell>
        <mxCell id="q_rT3Un5NSsV7Birm5jb-31" value="驗證卡片信息" style="rounded=1;whiteSpace=wrap;html=1;" parent="1" vertex="1">
          <mxGeometry x="2500" y="780" width="120" height="60" as="geometry" />
        </mxCell>
        <mxCell id="q_rT3Un5NSsV7Birm5jb-43" value="" style="edgeStyle=orthogonalEdgeStyle;rounded=0;orthogonalLoop=1;jettySize=auto;html=1;" parent="1" source="q_rT3Un5NSsV7Birm5jb-33" target="q_rT3Un5NSsV7Birm5jb-42" edge="1">
          <mxGeometry relative="1" as="geometry" />
        </mxCell>
        <mxCell id="v_bPv-2KKbtGAeJZKo34-23" value="3" style="edgeLabel;html=1;align=center;verticalAlign=middle;resizable=0;points=[];" parent="q_rT3Un5NSsV7Birm5jb-43" vertex="1" connectable="0">
          <mxGeometry x="-0.125" y="2" relative="1" as="geometry">
            <mxPoint as="offset" />
          </mxGeometry>
        </mxCell>
        <mxCell id="q_rT3Un5NSsV7Birm5jb-33" value="交易碼" style="rounded=1;whiteSpace=wrap;html=1;" parent="1" vertex="1">
          <mxGeometry x="2700" y="780" width="120" height="60" as="geometry" />
        </mxCell>
        <mxCell id="q_rT3Un5NSsV7Birm5jb-45" value="" style="edgeStyle=orthogonalEdgeStyle;rounded=0;orthogonalLoop=1;jettySize=auto;html=1;" parent="1" source="q_rT3Un5NSsV7Birm5jb-42" target="q_rT3Un5NSsV7Birm5jb-44" edge="1">
          <mxGeometry relative="1" as="geometry" />
        </mxCell>
        <mxCell id="v_bPv-2KKbtGAeJZKo34-24" value="4" style="edgeLabel;html=1;align=center;verticalAlign=middle;resizable=0;points=[];" parent="q_rT3Un5NSsV7Birm5jb-45" vertex="1" connectable="0">
          <mxGeometry x="0.075" y="-4" relative="1" as="geometry">
            <mxPoint as="offset" />
          </mxGeometry>
        </mxCell>
        <mxCell id="SFBoKNeTnfLwf62Vw7wD-65" value="" style="edgeStyle=orthogonalEdgeStyle;rounded=0;orthogonalLoop=1;jettySize=auto;html=1;entryX=0.5;entryY=1;entryDx=0;entryDy=0;" parent="1" source="q_rT3Un5NSsV7Birm5jb-42" target="SFBoKNeTnfLwf62Vw7wD-71" edge="1">
          <mxGeometry relative="1" as="geometry" />
        </mxCell>
        <mxCell id="q_rT3Un5NSsV7Birm5jb-42" value="確定授權檢核" style="rounded=1;whiteSpace=wrap;html=1;" parent="1" vertex="1">
          <mxGeometry x="2900" y="780" width="120" height="60" as="geometry" />
        </mxCell>
        <mxCell id="q_rT3Un5NSsV7Birm5jb-47" value="" style="edgeStyle=orthogonalEdgeStyle;rounded=0;orthogonalLoop=1;jettySize=auto;html=1;" parent="1" source="q_rT3Un5NSsV7Birm5jb-44" target="q_rT3Un5NSsV7Birm5jb-46" edge="1">
          <mxGeometry relative="1" as="geometry" />
        </mxCell>
        <mxCell id="v_bPv-2KKbtGAeJZKo34-25" value="5" style="edgeLabel;html=1;align=center;verticalAlign=middle;resizable=0;points=[];" parent="q_rT3Un5NSsV7Birm5jb-47" vertex="1" connectable="0">
          <mxGeometry x="0.15" y="-3" relative="1" as="geometry">
            <mxPoint as="offset" />
          </mxGeometry>
        </mxCell>
        <mxCell id="q_rT3Un5NSsV7Birm5jb-44" value="授權響應碼" style="rounded=1;whiteSpace=wrap;html=1;" parent="1" vertex="1">
          <mxGeometry x="3100" y="780" width="120" height="60" as="geometry" />
        </mxCell>
        <mxCell id="q_rT3Un5NSsV7Birm5jb-49" value="" style="edgeStyle=orthogonalEdgeStyle;rounded=0;orthogonalLoop=1;jettySize=auto;html=1;" parent="1" source="q_rT3Un5NSsV7Birm5jb-46" target="q_rT3Un5NSsV7Birm5jb-48" edge="1">
          <mxGeometry relative="1" as="geometry" />
        </mxCell>
        <mxCell id="v_bPv-2KKbtGAeJZKo34-26" value="6" style="edgeLabel;html=1;align=center;verticalAlign=middle;resizable=0;points=[];" parent="q_rT3Un5NSsV7Birm5jb-49" vertex="1" connectable="0">
          <mxGeometry x="-0.35" y="5" relative="1" as="geometry">
            <mxPoint as="offset" />
          </mxGeometry>
        </mxCell>
        <mxCell id="q_rT3Un5NSsV7Birm5jb-46" value="產生Approval Code" style="rounded=1;whiteSpace=wrap;html=1;" parent="1" vertex="1">
          <mxGeometry x="3100" y="920" width="120" height="60" as="geometry" />
        </mxCell>
        <mxCell id="q_rT3Un5NSsV7Birm5jb-51" value="" style="edgeStyle=orthogonalEdgeStyle;rounded=0;orthogonalLoop=1;jettySize=auto;html=1;" parent="1" source="q_rT3Un5NSsV7Birm5jb-48" edge="1">
          <mxGeometry relative="1" as="geometry">
            <mxPoint x="2820" y="950" as="targetPoint" />
          </mxGeometry>
        </mxCell>
        <mxCell id="v_bPv-2KKbtGAeJZKo34-27" value="7" style="edgeLabel;html=1;align=center;verticalAlign=middle;resizable=0;points=[];" parent="q_rT3Un5NSsV7Birm5jb-51" vertex="1" connectable="0">
          <mxGeometry x="-0.0311" y="-1" relative="1" as="geometry">
            <mxPoint as="offset" />
          </mxGeometry>
        </mxCell>
        <mxCell id="q_rT3Un5NSsV7Birm5jb-48" value="紀錄授權紀錄" style="rounded=1;whiteSpace=wrap;html=1;" parent="1" vertex="1">
          <mxGeometry x="2900" y="920" width="120" height="60" as="geometry" />
        </mxCell>
        <mxCell id="q_rT3Un5NSsV7Birm5jb-59" style="edgeStyle=orthogonalEdgeStyle;rounded=0;orthogonalLoop=1;jettySize=auto;html=1;entryX=0.5;entryY=0;entryDx=0;entryDy=0;" parent="1" source="q_rT3Un5NSsV7Birm5jb-52" target="SFBoKNeTnfLwf62Vw7wD-73" edge="1">
          <mxGeometry relative="1" as="geometry">
            <mxPoint x="2760" y="1090" as="targetPoint" />
          </mxGeometry>
        </mxCell>
        <mxCell id="q_rT3Un5NSsV7Birm5jb-60" value="KAFKA" style="edgeLabel;html=1;align=center;verticalAlign=middle;resizable=0;points=[];" parent="q_rT3Un5NSsV7Birm5jb-59" vertex="1" connectable="0">
          <mxGeometry x="0.0444" y="-2" relative="1" as="geometry">
            <mxPoint x="2" y="3" as="offset" />
          </mxGeometry>
        </mxCell>
        <mxCell id="v_bPv-2KKbtGAeJZKo34-28" value="8" style="edgeLabel;html=1;align=center;verticalAlign=middle;resizable=0;points=[];" parent="q_rT3Un5NSsV7Birm5jb-59" vertex="1" connectable="0">
          <mxGeometry x="-0.5273" y="3" relative="1" as="geometry">
            <mxPoint as="offset" />
          </mxGeometry>
        </mxCell>
        <mxCell id="q_rT3Un5NSsV7Birm5jb-52" value="發送簡訊(Kafka)" style="rounded=1;whiteSpace=wrap;html=1;arcSize=0;" parent="1" vertex="1">
          <mxGeometry x="2700" y="920" width="120" height="60" as="geometry" />
        </mxCell>
        <mxCell id="q_rT3Un5NSsV7Birm5jb-61" style="edgeStyle=orthogonalEdgeStyle;rounded=0;orthogonalLoop=1;jettySize=auto;html=1;entryX=0.5;entryY=1;entryDx=0;entryDy=0;" parent="1" source="q_rT3Un5NSsV7Birm5jb-52" target="q_rT3Un5NSsV7Birm5jb-30" edge="1">
          <mxGeometry relative="1" as="geometry" />
        </mxCell>
        <mxCell id="v_bPv-2KKbtGAeJZKo34-29" value="9" style="edgeLabel;html=1;align=center;verticalAlign=middle;resizable=0;points=[];" parent="q_rT3Un5NSsV7Birm5jb-61" vertex="1" connectable="0">
          <mxGeometry x="-0.6655" y="4" relative="1" as="geometry">
            <mxPoint x="-8" y="-4" as="offset" />
          </mxGeometry>
        </mxCell>
        <mxCell id="v_bPv-2KKbtGAeJZKo34-70" value="" style="rounded=1;whiteSpace=wrap;html=1;fillColor=#f8cecc;strokeColor=#b85450;" parent="1" vertex="1">
          <mxGeometry x="2030" y="200" width="810" height="360" as="geometry" />
        </mxCell>
        <mxCell id="v_bPv-2KKbtGAeJZKo34-71" value="" style="edgeStyle=orthogonalEdgeStyle;rounded=0;orthogonalLoop=1;jettySize=auto;html=1;" parent="1" source="v_bPv-2KKbtGAeJZKo34-73" target="v_bPv-2KKbtGAeJZKo34-76" edge="1">
          <mxGeometry relative="1" as="geometry" />
        </mxCell>
        <mxCell id="v_bPv-2KKbtGAeJZKo34-72" value="1" style="edgeLabel;html=1;align=center;verticalAlign=middle;resizable=0;points=[];" parent="v_bPv-2KKbtGAeJZKo34-71" vertex="1" connectable="0">
          <mxGeometry x="-0.5222" y="-1" relative="1" as="geometry">
            <mxPoint as="offset" />
          </mxGeometry>
        </mxCell>
        <mxCell id="v_bPv-2KKbtGAeJZKo34-73" value="SRS" style="rounded=1;whiteSpace=wrap;html=1;fillColor=#d5e8d4;strokeColor=#82b366;" parent="1" vertex="1">
          <mxGeometry x="1800" y="220" width="120" height="60" as="geometry" />
        </mxCell>
        <mxCell id="v_bPv-2KKbtGAeJZKo34-74" value="" style="edgeStyle=orthogonalEdgeStyle;rounded=0;orthogonalLoop=1;jettySize=auto;html=1;" parent="1" source="v_bPv-2KKbtGAeJZKo34-76" target="v_bPv-2KKbtGAeJZKo34-79" edge="1">
          <mxGeometry relative="1" as="geometry" />
        </mxCell>
        <mxCell id="v_bPv-2KKbtGAeJZKo34-75" value="2" style="edgeLabel;html=1;align=center;verticalAlign=middle;resizable=0;points=[];" parent="v_bPv-2KKbtGAeJZKo34-74" vertex="1" connectable="0">
          <mxGeometry x="-0.525" y="-1" relative="1" as="geometry">
            <mxPoint as="offset" />
          </mxGeometry>
        </mxCell>
        <mxCell id="v_bPv-2KKbtGAeJZKo34-76" value="驗證卡片信息" style="rounded=1;whiteSpace=wrap;html=1;" parent="1" vertex="1">
          <mxGeometry x="2100" y="220" width="120" height="60" as="geometry" />
        </mxCell>
        <mxCell id="v_bPv-2KKbtGAeJZKo34-77" value="" style="edgeStyle=orthogonalEdgeStyle;rounded=0;orthogonalLoop=1;jettySize=auto;html=1;" parent="1" source="v_bPv-2KKbtGAeJZKo34-79" target="v_bPv-2KKbtGAeJZKo34-82" edge="1">
          <mxGeometry relative="1" as="geometry" />
        </mxCell>
        <mxCell id="v_bPv-2KKbtGAeJZKo34-78" value="3" style="edgeLabel;html=1;align=center;verticalAlign=middle;resizable=0;points=[];" parent="v_bPv-2KKbtGAeJZKo34-77" vertex="1" connectable="0">
          <mxGeometry x="-0.125" y="2" relative="1" as="geometry">
            <mxPoint as="offset" />
          </mxGeometry>
        </mxCell>
        <mxCell id="v_bPv-2KKbtGAeJZKo34-79" value="交易碼" style="rounded=1;whiteSpace=wrap;html=1;" parent="1" vertex="1">
          <mxGeometry x="2300" y="220" width="120" height="60" as="geometry" />
        </mxCell>
        <mxCell id="v_bPv-2KKbtGAeJZKo34-80" value="" style="edgeStyle=orthogonalEdgeStyle;rounded=0;orthogonalLoop=1;jettySize=auto;html=1;" parent="1" source="v_bPv-2KKbtGAeJZKo34-82" target="v_bPv-2KKbtGAeJZKo34-85" edge="1">
          <mxGeometry relative="1" as="geometry" />
        </mxCell>
        <mxCell id="v_bPv-2KKbtGAeJZKo34-81" value="4" style="edgeLabel;html=1;align=center;verticalAlign=middle;resizable=0;points=[];" parent="v_bPv-2KKbtGAeJZKo34-80" vertex="1" connectable="0">
          <mxGeometry x="0.075" y="-4" relative="1" as="geometry">
            <mxPoint as="offset" />
          </mxGeometry>
        </mxCell>
        <mxCell id="SFBoKNeTnfLwf62Vw7wD-72" style="edgeStyle=orthogonalEdgeStyle;rounded=0;orthogonalLoop=1;jettySize=auto;html=1;entryX=0.5;entryY=1;entryDx=0;entryDy=0;" parent="1" source="v_bPv-2KKbtGAeJZKo34-82" target="v_bPv-2KKbtGAeJZKo34-108" edge="1">
          <mxGeometry relative="1" as="geometry" />
        </mxCell>
        <mxCell id="v_bPv-2KKbtGAeJZKo34-82" value="確定授權檢核" style="rounded=1;whiteSpace=wrap;html=1;" parent="1" vertex="1">
          <mxGeometry x="2500" y="220" width="120" height="60" as="geometry" />
        </mxCell>
        <mxCell id="v_bPv-2KKbtGAeJZKo34-83" value="" style="edgeStyle=orthogonalEdgeStyle;rounded=0;orthogonalLoop=1;jettySize=auto;html=1;" parent="1" source="v_bPv-2KKbtGAeJZKo34-85" target="v_bPv-2KKbtGAeJZKo34-88" edge="1">
          <mxGeometry relative="1" as="geometry" />
        </mxCell>
        <mxCell id="v_bPv-2KKbtGAeJZKo34-84" value="5" style="edgeLabel;html=1;align=center;verticalAlign=middle;resizable=0;points=[];" parent="v_bPv-2KKbtGAeJZKo34-83" vertex="1" connectable="0">
          <mxGeometry x="0.15" y="-3" relative="1" as="geometry">
            <mxPoint as="offset" />
          </mxGeometry>
        </mxCell>
        <mxCell id="v_bPv-2KKbtGAeJZKo34-85" value="授權響應碼" style="rounded=1;whiteSpace=wrap;html=1;" parent="1" vertex="1">
          <mxGeometry x="2700" y="220" width="120" height="60" as="geometry" />
        </mxCell>
        <mxCell id="v_bPv-2KKbtGAeJZKo34-86" value="" style="edgeStyle=orthogonalEdgeStyle;rounded=0;orthogonalLoop=1;jettySize=auto;html=1;" parent="1" source="v_bPv-2KKbtGAeJZKo34-88" target="v_bPv-2KKbtGAeJZKo34-91" edge="1">
          <mxGeometry relative="1" as="geometry" />
        </mxCell>
        <mxCell id="v_bPv-2KKbtGAeJZKo34-87" value="6" style="edgeLabel;html=1;align=center;verticalAlign=middle;resizable=0;points=[];" parent="v_bPv-2KKbtGAeJZKo34-86" vertex="1" connectable="0">
          <mxGeometry x="-0.35" y="5" relative="1" as="geometry">
            <mxPoint as="offset" />
          </mxGeometry>
        </mxCell>
        <mxCell id="v_bPv-2KKbtGAeJZKo34-88" value="產生Approval Code" style="rounded=1;whiteSpace=wrap;html=1;" parent="1" vertex="1">
          <mxGeometry x="2700" y="360" width="120" height="60" as="geometry" />
        </mxCell>
        <mxCell id="v_bPv-2KKbtGAeJZKo34-111" style="edgeStyle=orthogonalEdgeStyle;rounded=0;orthogonalLoop=1;jettySize=auto;html=1;" parent="1" source="v_bPv-2KKbtGAeJZKo34-91" target="v_bPv-2KKbtGAeJZKo34-73" edge="1">
          <mxGeometry relative="1" as="geometry" />
        </mxCell>
        <mxCell id="v_bPv-2KKbtGAeJZKo34-112" value="7" style="edgeLabel;html=1;align=center;verticalAlign=middle;resizable=0;points=[];" parent="v_bPv-2KKbtGAeJZKo34-111" vertex="1" connectable="0">
          <mxGeometry x="-0.376" y="1" relative="1" as="geometry">
            <mxPoint x="-245" y="-1" as="offset" />
          </mxGeometry>
        </mxCell>
        <mxCell id="v_bPv-2KKbtGAeJZKo34-115" style="edgeStyle=orthogonalEdgeStyle;rounded=0;orthogonalLoop=1;jettySize=auto;html=1;" parent="1" source="v_bPv-2KKbtGAeJZKo34-91" target="v_bPv-2KKbtGAeJZKo34-95" edge="1">
          <mxGeometry relative="1" as="geometry" />
        </mxCell>
        <mxCell id="v_bPv-2KKbtGAeJZKo34-116" value="9" style="edgeLabel;html=1;align=center;verticalAlign=middle;resizable=0;points=[];" parent="v_bPv-2KKbtGAeJZKo34-115" vertex="1" connectable="0">
          <mxGeometry x="-0.1158" y="1" relative="1" as="geometry">
            <mxPoint x="-118" y="49" as="offset" />
          </mxGeometry>
        </mxCell>
        <mxCell id="v_bPv-2KKbtGAeJZKo34-91" value="紀錄授權紀錄" style="rounded=1;whiteSpace=wrap;html=1;" parent="1" vertex="1">
          <mxGeometry x="2470" y="360" width="120" height="60" as="geometry" />
        </mxCell>
        <mxCell id="v_bPv-2KKbtGAeJZKo34-95" value="發送簡訊(Kafka)" style="rounded=1;whiteSpace=wrap;html=1;arcSize=0;" parent="1" vertex="1">
          <mxGeometry x="2150" y="490" width="120" height="60" as="geometry" />
        </mxCell>
        <mxCell id="v_bPv-2KKbtGAeJZKo34-96" value="IBO" style="rounded=1;whiteSpace=wrap;html=1;fillColor=#e1d5e7;strokeColor=#9673a6;" parent="1" vertex="1">
          <mxGeometry x="2290" y="600" width="120" height="60" as="geometry" />
        </mxCell>
        <mxCell id="v_bPv-2KKbtGAeJZKo34-113" style="edgeStyle=orthogonalEdgeStyle;rounded=0;orthogonalLoop=1;jettySize=auto;html=1;entryX=0.575;entryY=-0.017;entryDx=0;entryDy=0;entryPerimeter=0;" parent="1" source="v_bPv-2KKbtGAeJZKo34-91" target="v_bPv-2KKbtGAeJZKo34-96" edge="1">
          <mxGeometry relative="1" as="geometry" />
        </mxCell>
        <mxCell id="v_bPv-2KKbtGAeJZKo34-114" value="8" style="edgeLabel;html=1;align=center;verticalAlign=middle;resizable=0;points=[];" parent="v_bPv-2KKbtGAeJZKo34-113" vertex="1" connectable="0">
          <mxGeometry x="0.652" y="-1" relative="1" as="geometry">
            <mxPoint as="offset" />
          </mxGeometry>
        </mxCell>
        <mxCell id="phV7OgA365e1ZxidMUYJ-1" value="" style="group" parent="1" vertex="1" connectable="0">
          <mxGeometry x="2522" y="44" width="150" height="90" as="geometry" />
        </mxCell>
        <mxCell id="v_bPv-2KKbtGAeJZKo34-105" value="" style="rounded=1;whiteSpace=wrap;html=1;" parent="phV7OgA365e1ZxidMUYJ-1" vertex="1">
          <mxGeometry x="-52" y="26" width="120" height="60" as="geometry" />
        </mxCell>
        <mxCell id="v_bPv-2KKbtGAeJZKo34-106" value="" style="rounded=1;whiteSpace=wrap;html=1;" parent="phV7OgA365e1ZxidMUYJ-1" vertex="1">
          <mxGeometry x="-42" y="36" width="120" height="60" as="geometry" />
        </mxCell>
        <mxCell id="v_bPv-2KKbtGAeJZKo34-107" value="" style="rounded=1;whiteSpace=wrap;html=1;" parent="phV7OgA365e1ZxidMUYJ-1" vertex="1">
          <mxGeometry x="-32" y="46" width="120" height="60" as="geometry" />
        </mxCell>
        <mxCell id="v_bPv-2KKbtGAeJZKo34-108" value="授權檢核項" style="rounded=1;whiteSpace=wrap;html=1;" parent="phV7OgA365e1ZxidMUYJ-1" vertex="1">
          <mxGeometry x="-22" y="56" width="120" height="60" as="geometry" />
        </mxCell>
        <mxCell id="SFBoKNeTnfLwf62Vw7wD-64" value="確定授權檢核" style="rounded=1;whiteSpace=wrap;html=1;" parent="1" vertex="1">
          <mxGeometry x="2870" y="630" width="120" height="60" as="geometry" />
        </mxCell>
        <mxCell id="SFBoKNeTnfLwf62Vw7wD-69" value="確定授權檢核" style="rounded=1;whiteSpace=wrap;html=1;" parent="1" vertex="1">
          <mxGeometry x="2880" y="640" width="120" height="60" as="geometry" />
        </mxCell>
        <mxCell id="SFBoKNeTnfLwf62Vw7wD-70" value="確定授權檢核" style="rounded=1;whiteSpace=wrap;html=1;" parent="1" vertex="1">
          <mxGeometry x="2890" y="650" width="120" height="60" as="geometry" />
        </mxCell>
        <mxCell id="SFBoKNeTnfLwf62Vw7wD-71" value="確定授權檢核" style="rounded=1;whiteSpace=wrap;html=1;" parent="1" vertex="1">
          <mxGeometry x="2900" y="660" width="120" height="60" as="geometry" />
        </mxCell>
        <mxCell id="SFBoKNeTnfLwf62Vw7wD-73" value="IBO" style="rounded=1;whiteSpace=wrap;html=1;fillColor=#e1d5e7;strokeColor=#9673a6;" parent="1" vertex="1">
          <mxGeometry x="2700" y="1090" width="120" height="60" as="geometry" />
        </mxCell>
      </root>
    </mxGraphModel>
  </diagram>
</mxfile>
